<svg height="384pt" viewBox="0 0 384 384" width="384pt" xmlns="http://www.w3.org/2000/svg"><path d="m192 0c-95.40625 0-192 27.480469-192 80v224c0 52.519531 96.59375 80 192 80s192-27.480469 192-80v-224c0-52.519531-96.59375-80-192-80zm-160 126.230469c36.257812 22.28125 98.359375 33.769531 160 33.769531s123.742188-11.488281 160-33.769531v131.546875c-36.257812-22.289063-98.359375-33.777344-160-33.777344s-123.742188 11.488281-160 33.769531zm160 225.769531c-96.183594 0-160-28.886719-160-48s63.816406-48 160-48 160 28.886719 160 48-63.816406 48-160 48zm0-224c-96.183594 0-160-28.886719-160-48s63.816406-48 160-48 160 28.886719 160 48-63.816406 48-160 48zm0 0"/></svg>